<?xml version="1.0" encoding="UTF-8"?>
<svg width="600" height="400" viewBox="0 0 600 400" xmlns="http://www.w3.org/2000/svg">
  <defs>
    <linearGradient id="bg-gradient" x1="0%" y1="0%" x2="100%" y2="100%">
      <stop offset="0%" stop-color="#0f172a" />
      <stop offset="100%" stop-color="#1e1b4b" />
    </linearGradient>
    <linearGradient id="glow-gradient" x1="0%" y1="0%" x2="100%" y2="0%">
      <stop offset="0%" stop-color="#3b82f6" />
      <stop offset="100%" stop-color="#8b5cf6" />
    </linearGradient>
    <filter id="glow" x="-20%" y="-20%" width="140%" height="140%">
      <feGaussianBlur stdDeviation="5" result="blur" />
      <feComposite in="SourceGraphic" in2="blur" operator="over" />
    </filter>
  </defs>
  
  <!-- Background -->
  <rect width="600" height="400" fill="url(#bg-gradient)" />
  
  <!-- Ambient lighting effects -->
  <circle cx="150" cy="100" r="80" fill="#3b82f680" opacity="0.2" filter="blur(40px)" />
  <circle cx="400" cy="300" r="100" fill="#8b5cf680" opacity="0.2" filter="blur(50px)" />
  
  <!-- Desk -->
  <path d="M100,300 L500,300 L480,320 L120,320 Z" fill="#1f2937" />
  <path d="M120,320 L480,320 L470,350 L130,350 Z" fill="#111827" />
  
  <!-- Screens -->
  <rect x="200" y="180" width="200" height="120" rx="5" fill="#0f172a" stroke="#334155" stroke-width="2" />
  <rect x="210" y="190" width="180" height="100" rx="2" fill="#0f1629" />
  
  <!-- Code lines -->
  <rect x="220" y="200" width="100" height="2" fill="#3b82f6" opacity="0.8" filter="url(#glow)" />
  <rect x="220" y="210" width="140" height="2" fill="#8b5cf6" opacity="0.8" filter="url(#glow)" />
  <rect x="220" y="220" width="80" height="2" fill="#3b82f6" opacity="0.8" filter="url(#glow)" />
  <rect x="220" y="230" width="120" height="2" fill="#8b5cf6" opacity="0.8" filter="url(#glow)" />
  <rect x="220" y="240" width="90" height="2" fill="#3b82f6" opacity="0.8" filter="url(#glow)" />
  <rect x="220" y="250" width="130" height="2" fill="#8b5cf6" opacity="0.8" filter="url(#glow)" />
  <rect x="220" y="260" width="100" height="2" fill="#3b82f6" opacity="0.8" filter="url(#glow)" />
  <rect x="220" y="270" width="110" height="2" fill="#8b5cf6" opacity="0.8" filter="url(#glow)" />
  
  <!-- Smaller screen -->
  <rect x="150" y="200" width="40" height="80" rx="3" fill="#0f172a" stroke="#334155" stroke-width="1" />
  <rect x="155" y="205" width="30" height="70" rx="1" fill="#0f1629" />
  
  <!-- Floating UI elements -->
  <rect x="340" y="150" width="60" height="30" rx="15" fill="url(#glow-gradient)" opacity="0.7" filter="blur(1px)" />
  <rect x="380" y="200" width="40" height="40" rx="5" fill="url(#glow-gradient)" opacity="0.6" filter="blur(1px)" />
  <circle cx="420" cy="180" r="15" fill="url(#glow-gradient)" opacity="0.8" filter="blur(1px)" />
  
  <!-- Person silhouette -->
  <ellipse cx="250" cy="150" rx="25" ry="30" fill="#0f172a" />
  <path d="M225,180 C225,220 275,220 275,180 L275,220 L225,220 Z" fill="#0f172a" />
  
  <!-- Digital web elements floating -->
  <path d="M350,130 L420,100 L440,130 L370,160 Z" stroke="url(#glow-gradient)" stroke-width="1" fill="none" opacity="0.6" />
  <path d="M380,140 L430,120 L450,150 L400,170 Z" stroke="url(#glow-gradient)" stroke-width="1" fill="none" opacity="0.6" />
  
  <!-- Neon lighting accents -->
  <path d="M100,280 L500,280" stroke="url(#glow-gradient)" stroke-width="1" opacity="0.4" />
  <path d="M180,170 L180,270" stroke="#3b82f6" stroke-width="1" opacity="0.4" />
  <path d="M410,170 L410,270" stroke="#8b5cf6" stroke-width="1" opacity="0.4" />
</svg>